<svg width="738" height="623" viewBox="0 0 738 623" fill="none" xmlns="http://www.w3.org/2000/svg">
<circle cx="426.5" cy="311.5" r="311.5" fill="#F9C400" fill-opacity="0.5"/>
<path d="M162.286 423.446C159.454 429.788 156.752 436.503 153.496 442.936C148.891 452.34 141.294 459.948 131.897 464.565C120.446 470.249 109.308 476.53 97.5943 481.682C71.3243 493.282 65.92 522.993 67.3064 542.119C67.3475 544.125 68.0549 546.06 69.3171 547.619C70.5793 549.178 72.3245 550.273 74.2776 550.731C78.9196 552.082 83.5336 553.659 88.1081 555.222C92.6826 556.786 93.9476 560.238 93.5248 564.634C93.059 569.586 89.1228 569.907 85.6666 569.676C79.7707 569.403 73.9128 568.584 68.168 567.229C59.0544 564.858 53.6436 559.024 52.5882 549.095C50.4357 529.594 47.5938 510.169 45.375 490.668C45.0092 487.499 46.3534 484.129 47.0252 480.198C44.1431 480.339 41.2553 480.323 38.3751 480.148C16.9284 477.772 5.49556 466.405 1.59774 444.032C-0.64624 431.182 1.94099 419.021 6.8442 407.259C7.98602 404.523 9.87269 401.275 12.3171 400.083C15.5452 398.512 20.0949 397.478 23.2413 398.596C25.5549 399.404 27.8593 404.081 27.7896 406.969C27.6167 413.963 26.0663 420.923 25.0192 427.899C24.7852 429.421 24.3527 430.915 24.1055 432.424C22.9118 439.558 22.0217 446.866 28.7756 451.82C32.1109 454.424 36.0973 456.061 40.2996 456.552C44.5019 457.044 48.7584 456.371 52.6044 454.608C67.4115 448.294 72.7709 435.527 74.485 420.871C76.297 405.328 77.8578 389.704 78.5178 374.062C79.9169 340.578 99.5022 321.19 128.616 310.309C155.168 300.393 182.649 301.519 210.144 307.163C219.408 309.001 228.782 310.232 238.207 310.849C257.778 312.287 277.42 312.904 297.005 314.236C314.211 315.431 331.473 312.92 347.625 306.871C355.059 304.106 362.585 301.592 370.071 299.052C385.561 293.736 401.167 293.694 415.843 300.893C450.28 317.772 486.578 329.124 523.441 339.048C527.03 340.148 530.56 341.433 534.016 342.898C541.379 345.736 544.329 351.026 545.594 358.942C546.883 366.698 549.684 374.124 553.84 380.797C559.498 389.812 552.542 394.501 549.168 400.642C545.969 406.427 540.709 406.608 535.353 404.961C529.046 403.017 522.913 400.53 516.754 398.137C510.595 395.743 504.743 395.166 498.21 397.817C494.771 399.215 489.885 398.71 486.183 397.47C477.444 394.518 469.123 390.31 460.437 387.173C447.68 382.555 438.118 386.739 432.06 398.932C429.38 404.216 426.964 409.713 423.901 414.783C418.725 423.365 411.653 429.868 401.572 432.195C394.767 433.759 391.973 438.114 392.425 444.688C394.085 469.3 394.286 494.102 402.229 517.863C402.869 519.518 403.161 521.288 403.086 523.061C401.76 537.097 410.275 544.485 421.224 550.206C424.539 551.934 428.175 553.081 431.397 554.968C433.911 556.269 436.105 558.115 437.817 560.37C443.07 568.27 441.29 571.493 431.856 571.743C423.907 571.935 415.96 571.651 408.01 571.923C402.922 572.132 399.832 570.365 397.767 565.624C392.956 554.56 387.786 543.64 382.423 531.897C380.309 533.144 378.303 534.219 376.388 535.466C370.112 539.55 363.993 543.913 357.533 547.705C354.531 549.533 351.147 550.642 347.645 550.946C344.674 550.978 341.792 549.935 339.528 548.011C338.685 547.264 340.31 543.313 341.317 541.053C342.834 537.644 344.233 533.876 346.672 531.267C350.197 527.863 354.119 524.896 358.354 522.431C361.093 520.712 364.594 520.202 367.319 518.509C375.377 513.256 376.645 509.381 372.083 500.969C363.447 484.849 354.252 469.07 345.682 452.884C341.986 445.92 339.3 438.419 335.954 430.689C334.332 430.849 332.724 431.123 331.14 431.509C314.954 436.43 297.593 435.841 281.778 429.833C264.592 423.626 247.514 417.274 229.853 410.8C227.925 428.012 226.183 445.291 224.004 462.435C222.866 471.384 220.51 480.181 219.491 489.131C217.525 506.183 223.285 520.445 237.001 530.898C244.704 536.772 253.087 541.748 261.056 547.293C264.547 549.613 267.826 552.239 270.853 555.139C274.739 559.004 274.192 562.008 269.11 563.33C258.497 566.104 248.184 567.184 238.842 558.425C226.272 546.707 212.729 536.017 199.893 524.563C190.18 515.895 185.221 505.228 186.372 491.668C187.194 481.274 187.255 470.833 186.553 460.43C185.942 453.671 184.595 447 182.535 440.534C179.783 430.727 174.54 423.265 162.286 423.446Z" fill="black"/>
</svg>
