<svg width="739" height="623" viewBox="0 0 739 623" fill="none" xmlns="http://www.w3.org/2000/svg">
<circle cx="311.5" cy="311.5" r="311.5" fill="#F9C400" fill-opacity="0.5"/>
<path d="M721.274 220.466C724.652 232.969 722.749 235.192 710.447 234.412C703.603 233.955 696.759 232.939 689.9 232.792C676.831 232.424 667.509 238.196 661.741 250.184C653.009 268.283 643.938 286.235 634.91 304.172C627.836 318.218 618.351 330.918 606.885 341.695C598.801 349.323 598.521 356.304 605.321 365.258C606.031 366.26 606.858 367.175 607.784 367.982C622.314 379.616 619.009 392.782 608.95 404.298C595.291 419.893 578.151 426.138 562.648 420.247C559.123 418.907 554.683 415.947 553.798 412.884C553.149 410.468 556.748 405.52 559.698 403.812C567.707 399.291 576.469 396.125 584.774 392.031C588.019 390.426 590.674 387.716 593.624 385.507C591.116 382.753 588.978 379.469 586.027 377.334C577.752 371.355 569.227 365.744 560.612 360.265C558.591 359.122 556.297 358.547 553.975 358.601C549.549 358.601 545.242 359.132 539.637 359.544C539.637 368.733 539.785 378.423 539.637 388.099C539.728 393.74 539.233 399.376 538.162 404.917C537.269 409.169 535.194 413.084 532.174 416.212C520.594 426.948 507.334 434.517 490.872 435.003C485.724 435.15 480.547 435.945 473.658 436.623C477.066 441.424 479.559 445.753 482.804 449.288C494.604 461.85 510.387 465.811 526.45 468.432C536.082 470.008 546.024 469.714 555.804 470.538C565.583 471.363 570.466 474.78 570.746 480.656C571.026 486.531 566.321 492.128 557.471 492.996C520.521 496.649 485.724 491.008 457.315 464.824C445.028 453.411 438.656 437.919 433.228 422.294C432.254 419.511 429.156 417.537 427.46 414.931C424.923 411.028 420.719 406.86 420.793 402.87C421.176 382.782 410.556 371.119 393.505 363.225C372.131 353.329 350.728 343.389 329.738 332.8C318.635 327.034 307.87 320.642 297.494 313.656C287.301 306.999 281.696 306.366 272.212 314.068C262.727 321.77 254.511 330.267 245.1 337.822C216.865 360.917 183.908 377.559 148.544 386.582C130.534 391.118 112.405 388.526 94.3065 386.891C78.7005 385.418 63.4338 386.228 49.0963 393.71C42.2521 397.288 35.821 395.182 31.9711 388.909C28.6375 383.416 29.316 376.155 35.6735 372.857C45.9988 367.526 56.8993 361.929 68.1244 360.206C81.9648 358.282 96.008 358.317 109.839 360.31C132.525 363.255 153.942 360.31 172.838 348.057C196.719 332.653 219.258 315.172 242.548 298.841C256.178 289.268 269.822 279.696 284.027 271.007C295.68 263.909 306.477 256.399 314.84 245.295C328.116 227.77 345.108 216.151 367.234 211.173C401.16 203.545 434.644 192.662 470 194.208C486.86 194.944 503.661 197.448 520.432 199.716C541.791 202.661 561.822 200.408 580.585 188.524C586.485 184.768 594.391 184.106 601.324 181.823C606.311 180.356 611.178 178.51 615.882 176.3C629.6 169.232 643.23 161.986 656.638 154.343C660.473 152.164 663.364 148.364 666.742 145.345C670.592 141.884 674.574 138.541 678.365 135.036C680.124 132.96 682.274 131.249 684.693 130C685.342 136.259 685.991 142.518 686.64 148.821C704.016 149.837 716.259 160.602 720.05 177.773C720.792 180.582 722.163 183.186 724.062 185.387C727.927 190.158 732.204 194.562 736.261 199.171C739.757 203.132 740.066 206.034 736.261 211.114C732.219 216.592 728.531 220.863 721.274 220.466ZM462.035 341.99C462.035 357.968 461.784 373.107 462.345 388.217C462.345 390.057 466.682 393.238 469.042 393.268C478.541 393.43 488.055 392.576 497.554 392.134C503.558 391.854 505.519 388.025 504.03 383.136C500.827 371.893 496.885 360.873 492.229 350.148C490.548 346.481 485.09 343.315 480.812 342.314C475.148 340.988 468.879 341.99 462.035 341.99Z" fill="black"/>
</svg>
