<svg width="623" height="685" viewBox="0 0 623 685" fill="none" xmlns="http://www.w3.org/2000/svg">
<circle cx="311.5" cy="373.5" r="311.5" fill="#F9C400" fill-opacity="0.5"/>
<path d="M24 198.534C28.9828 190.908 33.3379 190.973 38.19 199.071C41.538 204.653 44.5983 210.444 47.5017 216.288C59.3767 240.187 78.0265 253.827 105.19 253.238C125.095 252.805 145.236 252.687 164.762 249.372C175.604 247.525 185.412 239.48 195.587 234.042C196.594 233.505 196.987 231.644 197.457 230.321C215.414 180.596 246.043 139.715 284.624 104.246C289.542 99.7258 292.811 93.3972 296.852 87.9071C301.626 81.3557 305.654 74.0837 311.369 68.5413C318.17 61.9899 323.297 54.9013 326.383 45.9652C331.745 30.4909 339.906 17.244 355.77 10.1423C357.653 9.30371 358.137 5.28115 358.621 4.23293C365.932 2.92265 372.432 1.70411 378.958 0.603479C388.074 -0.952541 397.448 0.519853 405.651 4.79634C408.266 6.10661 410.071 9.25127 412.19 11.5443C415.446 14.9772 418.559 18.5411 422.025 21.7382C424.314 23.8477 429.192 25.3677 429.244 27.2283C429.362 31.8535 427.688 36.636 426.079 41.1172C425.177 43.6067 423.463 46.6072 421.227 47.6686C418.245 49.0575 414.073 49.9616 411.157 48.9788C403.454 46.3583 396.287 47.5638 389.054 49.9747C387.446 50.5119 385.196 51.6387 384.83 52.949C382.568 60.9286 378.801 69.1702 379.285 77.0843C379.991 88.4968 383.902 99.7127 386.753 112.462C393.423 111.151 400.616 110.221 407.508 108.256C418.664 105.085 429.584 101.115 440.661 97.6687C458.108 92.2442 475.541 92.0345 492.883 98.2059C494.191 98.6907 496.1 98.8873 496.741 99.8569C498.533 102.569 500.73 105.57 500.913 108.57C501.005 110.103 497.251 113.051 495.028 113.287C490.819 113.812 486.547 113.364 482.538 111.977C468.897 106.736 455.767 108.046 442.754 113.693C431.206 118.699 419.736 123.835 408.384 129.548C420.455 127.464 432.474 125.093 444.585 123.337C462.581 120.716 479.896 123.101 496.244 131.487C497.866 132.325 500.168 132.915 500.874 134.291C502.469 137.147 504.34 140.62 503.947 143.541C503.712 145.35 499.54 147.8 497.068 147.865C493.016 148.049 488.988 147.144 485.402 145.245C470.558 136.545 455.087 136.427 439.34 141.314C414.492 148.979 389.643 155.53 363.369 155.557C362.615 155.66 361.893 155.924 361.25 156.331C360.607 156.738 360.058 157.278 359.641 157.915C345.046 181.356 324.33 198.429 299.991 209.92C276.803 220.835 268.93 240.345 264.889 262.816C262.509 276.023 262.273 289.611 260.115 302.897C257.563 318.086 251.179 332.37 241.57 344.394C216.591 376.522 217.925 410.641 233.723 445.861C234.267 446.851 235.014 447.714 235.916 448.392C236.818 449.069 237.854 449.547 238.955 449.792C243.951 450.592 250.032 456.815 249.234 461.585C248.966 462.264 248.546 462.872 248.007 463.363C247.467 463.853 246.822 464.213 246.122 464.415C230.271 468.529 221.273 465.005 216.46 449.465C210.51 430.06 206.338 410.038 202.623 390.057C201.472 383.912 204.31 376.954 205.239 371.372C191.873 386.585 187.714 426.234 198.464 448.98C201.289 450.683 205.278 451.705 206.717 454.221C211.438 462.41 209.45 465.371 200.047 465.712C182.614 466.341 180.286 464.808 177.618 447.67C174.4 427.007 173.694 406.186 176.898 385.445C177.612 380.394 179.276 375.526 181.803 371.097C192.488 353.264 194.175 333.885 192.841 313.786C191.716 296.752 190.814 279.718 189.78 262.056C180.142 263.785 169.274 266.183 158.275 267.625C130.72 271.197 102.741 269.53 75.8031 262.711C50.1566 256.343 37.0783 236.506 26.3279 214.558C25.5432 212.947 24.837 211.283 24.0916 209.658L24 198.534Z" fill="black"/>
</svg>
