<svg width="861" height="623" viewBox="0 0 861 623" fill="none" xmlns="http://www.w3.org/2000/svg">
<circle cx="450.5" cy="311.5" r="311.5" fill="#F9C400" fill-opacity="0.5"/>
<path d="M636.636 298.22C575.773 305.662 515.569 321.245 453.193 311.755C453.193 322.672 452.496 333.166 453.351 343.476C454.838 361.662 458.996 379.796 458.786 397.916C458.628 412.733 453.956 427.549 450.719 442.246C450.298 444.189 446.679 446.423 444.324 446.727C439.836 447.308 435.112 446.727 430.598 446.383C424.308 445.987 418.031 445.154 411.728 445.062C407.346 444.956 405.451 442.881 407.78 439.524C410.425 435.596 413.967 432.361 418.11 430.087C423.953 427.219 426.65 423.346 425.585 417.16C422.953 402.265 421.005 387.211 417.255 372.606C413.307 357.327 407.411 342.564 402.779 327.443C399.66 317.24 393.923 309.058 386.567 301.525C372.631 287.237 360.84 271.482 356.445 251.3C355.966 249.837 355.722 248.307 355.721 246.767C357.59 231.184 352.615 217.253 347.062 202.979C339.732 184.158 339.39 164.649 344.206 144.612C346.207 136.299 343.72 126.901 343.285 117.993C343.062 113.407 342.272 108.741 342.812 104.234C343.627 97.4407 347.102 95.1938 353.826 96.3701C356.213 96.6958 358.502 97.5343 360.537 98.8285C372.052 106.878 383.316 103.798 394.752 98.6435C397.477 97.5924 400.263 96.7096 403.095 96.0001C402.779 96.8459 402.463 97.7051 402.134 98.551C404.132 100.752 406.259 102.83 408.504 104.776C411.241 106.931 414.544 108.398 417.202 110.631C421.321 114.081 423.308 118.218 419.373 122.857C421.334 129.796 430.73 131.673 428.19 142.299C426.427 149.701 425.756 156.455 418.978 161.57C446.719 176.346 474.248 187.924 505.752 186.537C534.203 185.294 562.745 185.413 591.13 183.365C609.554 182.043 627.858 177.377 646.4 175.196C658.954 173.716 671.864 172.553 684.365 173.703C712.592 176.346 731.66 193.595 742.372 218.495C750.636 237.713 755.308 258.53 761.045 278.791C767.349 301.062 774.52 322.923 786.048 343.132C797.576 363.341 812.67 380.14 835.146 388.863C839.671 390.541 843.969 392.783 847.937 395.537C852.007 398.433 855.634 401.91 858.702 405.86C860.281 407.761 861.098 410.186 860.991 412.66C860.884 415.134 859.861 417.479 858.122 419.235C856.518 421.241 854.274 422.629 851.769 423.166C849.264 423.703 846.651 423.356 844.371 422.183C840.631 420.375 837.101 418.158 833.843 415.574C823.039 407.34 812.578 398.895 799.458 394.057C793.207 391.757 788.154 386.127 783.193 382.545C782.508 397.903 781.64 413.75 781.14 429.611C780.811 440.594 775.415 447.533 765.125 450.177C758.765 451.718 752.275 452.656 745.741 452.979C741.911 453.216 738.319 451.498 737.766 446.78C737.227 442.286 739.727 439.775 743.635 438.413C749.583 436.352 756.334 435.228 757.216 427.1C758.453 415.601 764.046 403.957 755.202 392.881C750.452 386.92 746.438 380.364 741.688 373.491C741.174 393.912 734.147 412.112 728.528 430.642C722.185 451.789 708.789 454.803 685.971 450.269C680.878 449.265 679.904 444.004 684.115 440.832C686.787 438.975 689.883 437.829 693.116 437.501C701.446 436.51 705.736 433.325 708.473 425.474C716.474 402.569 706.407 378.514 691.261 364.173C677.246 350.956 662.547 338.387 648.229 325.434C640.781 318.799 639.399 315.257 636.636 298.22ZM729.397 272.844C723.751 288.942 736.792 324.39 751.636 334.713C744.214 314.081 737.016 294.07 729.397 272.844Z" fill="black"/>
<path d="M137.917 173.538C135.478 173.538 133.139 172.931 131.415 171.849C129.691 170.767 128.722 169.299 128.722 167.769C128.722 166.239 129.691 164.772 131.415 163.69C133.139 162.608 135.478 162 137.917 162H165.5C175.254 162 184.609 164.431 191.506 168.759C198.403 173.087 202.278 178.957 202.278 185.077C202.278 191.197 198.403 197.067 191.506 201.395C184.609 205.723 175.254 208.154 165.5 208.154H45.9722C43.5337 208.154 41.1951 207.546 39.4708 206.464C37.7465 205.382 36.7778 203.915 36.7778 202.385C36.7778 200.855 37.7465 199.387 39.4708 198.305C41.1951 197.223 43.5337 196.615 45.9722 196.615H165.5C170.377 196.615 175.054 195.4 178.503 193.236C181.952 191.072 183.889 188.137 183.889 185.077C183.889 182.017 181.952 179.082 178.503 176.918C175.054 174.754 170.377 173.538 165.5 173.538H137.917ZM248.25 173.538C245.811 173.538 243.473 172.931 241.749 171.849C240.024 170.767 239.056 169.299 239.056 167.769C239.056 166.239 240.024 164.772 241.749 163.69C243.473 162.608 245.811 162 248.25 162H266.639C283.709 162 300.079 166.255 312.149 173.828C324.219 181.402 331 191.674 331 202.385C331 213.095 324.219 223.367 312.149 230.941C300.079 238.514 283.709 242.769 266.639 242.769H9.19444C6.75593 242.769 4.41728 242.161 2.69298 241.079C0.968691 239.998 0 238.53 0 237C0 235.47 0.968691 234.002 2.69298 232.921C4.41728 231.839 6.75593 231.231 9.19444 231.231H266.639C278.831 231.231 290.525 228.192 299.146 222.782C307.768 217.372 312.611 210.035 312.611 202.385C312.611 194.734 307.768 187.397 299.146 181.987C290.525 176.578 278.831 173.538 266.639 173.538H248.25ZM82.75 277.385C80.3115 277.385 77.9728 276.777 76.2485 275.695C74.5242 274.613 73.5556 273.145 73.5556 271.615C73.5556 270.085 74.5242 268.618 76.2485 267.536C77.9728 266.454 80.3115 265.846 82.75 265.846H220.667C230.421 265.846 239.775 268.277 246.673 272.605C253.57 276.933 257.444 282.803 257.444 288.923C257.444 295.043 253.57 300.913 246.673 305.241C239.775 309.569 230.421 312 220.667 312H193.083C190.645 312 188.306 311.392 186.582 310.31C184.858 309.228 183.889 307.761 183.889 306.231C183.889 304.701 184.858 303.233 186.582 302.151C188.306 301.069 190.645 300.462 193.083 300.462H220.667C225.544 300.462 230.221 299.246 233.67 297.082C237.118 294.918 239.056 291.983 239.056 288.923C239.056 285.863 237.118 282.928 233.67 280.764C230.221 278.6 225.544 277.385 220.667 277.385H82.75Z" fill="black"/>
</svg>
