<svg width="897" height="623" viewBox="0 0 897 623" fill="none" xmlns="http://www.w3.org/2000/svg">
<circle cx="585.5" cy="311.5" r="311.5" fill="#F9C400" fill-opacity="0.5"/>
<path d="M509.119 288.165C514.123 297.892 521.67 307.384 518.146 320.708C517.822 322.643 517.927 324.625 518.452 326.515C518.977 328.406 519.91 330.159 521.185 331.651C525.614 336.097 532.977 333.364 535.086 327.193C537.512 320.254 538.333 312.857 537.486 305.557C536.64 298.257 534.149 291.242 530.199 285.04C516.023 261.845 501.769 238.48 485.025 217.169C474.74 204.094 459.765 194.615 446.873 183.553C443.558 180.716 440.178 177.97 436.837 175.172C433.26 172.165 430.43 169.014 434.072 164.15C437.715 159.287 442.064 158.751 446.663 161.849C457.59 169.184 469.801 172.845 482.509 175.316C506.787 180.023 529.754 177.291 551.044 163.863C566.255 154.266 580.706 143.845 591.528 129.202C594.987 124.521 597.227 119.552 595.275 113.394C592.589 104.883 585.082 101.169 577.378 105.732C572.793 108.452 569.032 112.623 565.115 116.375C551.424 129.515 536.868 141.806 517.464 144.486C489.348 148.408 464.56 139.544 443.021 121.422C437.859 117.081 432.932 112.427 428.177 107.641C405.17 84.4859 377.342 74.3269 345.007 77.9486C315.751 81.2303 287.583 76.275 259.846 68.2863C228.647 59.2666 198.357 47.3696 169.366 32.7491C157.575 26.8524 145.783 26.6955 133.258 30.9056C103.537 41.0715 72.5877 47.2276 41.2321 49.2102C38.5201 49.3671 35.6901 51.6029 33.3712 53.4203C28.6545 57.1205 24.0952 61.0298 19.7716 65.1876C16.9285 67.9071 13.6663 70.7967 12.225 74.3399C7.92767 84.7997 4.44269 95.4949 0.64325 106.099C-0.483521 109.223 -0.365601 111.328 2.92291 113.786C7.11542 116.911 9.81433 122.024 13.9413 125.253C15.307 126.28 16.8652 127.023 18.5237 127.439C20.1823 127.854 21.9075 127.933 23.5973 127.672C29.2048 126.247 34.4455 123.305 39.7648 120.834C41.4485 119.944 43.3129 119.447 45.2172 119.382C47.1214 119.316 49.0157 119.683 50.7571 120.455C54.6876 121.971 60.0854 121.069 64.4614 119.866C69.8593 118.389 74.8641 115.473 80.0655 113.263C84.2187 111.498 87.481 112.518 90.4682 116.009C100.137 127.293 109.859 133.922 124.428 140.969C118.126 142.995 111.929 146.343 105.509 146.813C77.8906 148.827 72.0865 163.131 68.025 183.658C66.4136 191.804 66.8589 200.498 67.3961 208.892C67.8678 216.332 72.3879 221.771 79.2924 224.87C87.3762 228.504 94.1497 224.02 93.403 215.312C92.8134 208.395 91.3591 201.557 90.573 194.641C89.5379 185.711 90.1799 184.73 99.0891 182.403C106.216 180.546 113.501 179.134 121.034 177.434C125.777 194.549 139.075 199.282 154.247 199.518C166.402 199.57 178.539 198.586 190.526 196.576C194.181 196.014 197.207 191.346 200.522 188.561C197.076 185.606 193.971 180.716 190.119 180.089C179.232 178.284 168.043 178.284 156.998 177.395C152.845 177.068 148.731 176.218 144.604 175.617C144.473 174.715 144.329 173.826 144.198 172.924C147.342 171.446 150.343 169.393 153.644 168.583C165.842 165.589 178 165.746 190.591 167.38C213.257 170.348 236.132 171.721 258.929 173.695C277.453 175.278 296.082 172.283 313.17 164.974C329.836 158.084 345.309 164.517 356.851 176.297C380.709 200.668 408.354 219.901 436.378 238.807C455.14 251.464 469.316 268.5 482.024 286.909C489.112 297.186 492.388 307.541 486.112 319.766C482.483 326.853 484.239 330.553 490.043 333.364C497.144 336.829 502.869 334.855 504.363 326.827C506.669 313.961 507.625 300.952 509.119 288.165Z" fill="black"/>
</svg>
