<svg width="758" height="623" viewBox="0 0 758 623" fill="none" xmlns="http://www.w3.org/2000/svg">
<circle cx="446.5" cy="311.5" r="311.5" fill="#F9C400" fill-opacity="0.5"/>
<path d="M644.283 332.289L605.258 313.125C605.429 312.627 605.614 312.13 605.799 311.633C613.058 313.125 620.302 314.645 627.575 316.122C630.421 316.704 633.268 317.315 636.114 317.727C649.421 319.659 653.762 316.832 657.463 303.99C657.672 303.323 657.919 302.668 658.203 302.029C665.219 305.425 671.937 309.133 678.968 311.974C682.541 313.173 686.301 313.726 690.069 313.608C701.085 313.778 704.643 308.451 700.032 298.35C698.423 294.827 696.16 290.934 693.086 288.846C672.25 274.768 652.453 258.175 627.617 251.91C612.346 248.074 596.107 247.407 580.238 246.881C571.601 246.844 563.209 244.007 556.327 238.798C545.183 230.416 534.267 221.622 522.497 214.15C500.878 200.441 477.679 190.823 451.335 192.116C446.923 192.329 442.184 192.329 438.227 193.963C415.797 203.154 391.801 202.33 368.489 205.214C342.021 208.322 315.262 208.016 288.873 204.305C283.953 203.467 279.382 201.227 275.708 197.855C266.073 189.019 256.238 180.993 242.589 179.743C238.846 179.387 234.889 178.705 231.36 179.529C217.127 182.854 203.208 180.694 189.175 178.109C176.964 175.921 164.61 174.586 152.356 172.654C150.164 172.298 148.086 169.812 146.08 170.011C134.153 171.531 122.041 172.654 110.499 175.694C101.248 178.137 93.1778 183.223 91.5269 194.659C91.0572 197.983 86.9868 200.853 84.4106 203.794C82.1762 206.351 77.2946 209.334 77.7927 211.067C79.3535 216.444 81.8541 221.504 85.1793 226.012C91.8827 235.601 99.4116 232.448 107.752 227.518C111.865 225.103 117.8 225.572 122.938 225.188C126.271 224.963 129.62 225.168 132.9 225.799C137.384 226.623 142.094 227.333 146.151 229.251C154.477 233.215 153.993 234.294 150.819 242.733C147.887 250.532 146.364 258.885 144.528 267.068C142.123 277.666 142.208 277.723 131.591 277.538C124.717 277.41 117.814 277.708 110.968 277.14C103.162 276.318 95.3458 278.594 89.207 283.476C78.7177 291.616 68.257 299.813 58.0524 308.309C55.6472 310.297 54.3235 313.565 52.4591 316.221C51.8755 317.045 51.2778 318.182 50.4523 318.466C42.6956 321.08 34.9817 323.921 27.04 325.811C24.407 326.45 21.1906 324.39 18.2018 323.822C14.9995 323.225 11.299 321.79 8.63757 322.813C5.07458 324.339 2.08582 326.949 0.0981445 330.271C-0.584961 331.451 2.44653 335.57 4.56714 337.474C14.8145 346.651 27.3389 347.418 39.7068 344.449C58.4224 340.045 77.138 335.173 95.327 328.979C110.983 323.68 126.311 318.551 142.849 317.23C147.725 316.987 152.484 315.647 156.768 313.309C161.991 310.127 166.546 310.965 171.854 312.173C180.678 314.176 189.659 315.554 198.611 316.974C210.424 318.85 219.789 314.417 225.653 304.359C230.122 296.759 235.615 296.29 243.628 297.384C265.119 300.325 286.766 302.427 308.4 304.118C330.033 305.808 350.456 302.101 370.908 294.571C387.987 288.278 406.304 285.124 424.194 281.104C426.699 280.535 430.357 282.311 432.648 284.073C442.611 291.744 451.321 301.39 462.123 307.399C479.729 317.202 499.128 317.344 518.242 310.994C524.717 308.87 531.668 308.648 538.267 310.354C559.857 315.341 580.252 322.714 598.213 336.124C605.771 341.807 614.324 345.458 624.016 345.643C634.605 345.884 642.035 340.912 644.283 332.289ZM646.703 290.65L646.077 292.27C615.335 285.735 584.583 279.219 553.822 272.722C551.318 272.196 548.229 271.543 546.123 272.509C532.019 278.944 519.921 274.825 510.713 264.184C498.16 249.68 487.03 233.939 475.132 218.525C486.518 218.27 495.626 223.142 503.824 229.734C512.976 237.065 521.543 245.148 530.453 252.777C539.106 260.178 548.258 266.826 559.914 268.616C576.993 271.259 594.072 273.93 611.15 276.188C624.415 277.922 636.456 282.098 646.703 290.65ZM107.296 297.27L88.6662 305.212C93.1068 298.293 98.9561 294.827 107.353 297.27H107.296Z" fill="black"/>
</svg>
