<svg width="680" height="623" viewBox="0 0 680 623" fill="none" xmlns="http://www.w3.org/2000/svg">
<circle cx="311.5" cy="311.5" r="311.5" fill="#F9C400" fill-opacity="0.5"/>
<path d="M535.358 129C539.448 132.696 543.665 133.565 549.318 131.954C566.343 127.073 581.914 131.559 596.001 141.431C598.496 143.2 599.159 147.307 601.212 150.024C604.644 154.883 608.334 159.555 612.267 164.019C615.093 167.178 621.632 170.179 621.268 172.374C620.163 179.024 616.72 185.342 613.719 191.566C612.368 194.06 610.474 196.219 608.176 197.884C606.423 199.227 603.786 200.617 601.859 200.301C596.638 199.184 591.482 197.781 586.415 196.099C581.677 209.083 580.098 223.141 580.256 237.262C580.397 250.782 581.315 264.283 583.003 277.699C586.351 304.393 580.145 327.96 562.094 348.146C561.32 348.999 560.657 349.947 559.504 351.384C587.283 354.085 614.304 356.992 641.372 359.172C648.889 359.772 656.564 358.003 664.16 357.829C667.729 357.734 671.946 357.924 674.741 359.724C676.173 360.732 677.379 362.025 678.284 363.524C679.19 365.022 679.774 366.692 680 368.428C680 370.323 675.862 373.435 673.099 374.146C667.863 375.449 662.48 376.07 657.085 375.994C609.571 375.867 562.063 375.625 514.559 375.267C511.859 375.267 509.158 374.92 506.474 374.698C497.677 373.972 490.839 370.576 489.102 362.868L394.111 367.085C394.253 368.364 394.538 370.892 394.901 374.082C389.753 374.541 384.904 375.394 380.056 375.346C347.334 374.983 314.613 374.604 281.891 373.767C270.931 373.514 268.183 370.734 265.72 360.293C246.248 367.748 225.781 367.812 205.393 368.191C178.546 368.775 151.699 368.649 124.994 369.77C108.065 370.513 91.2457 373.609 74.3321 374.714C53.502 376.089 32.9562 374.019 13.7685 365.016C9.03078 362.804 4.10356 359.456 1.32411 355.254C-0.586766 352.395 -0.365668 346.188 1.57679 343.281C3.15602 341.054 9.86776 339.775 12.4261 341.275C32.0402 352.806 53.581 352.332 74.9164 351.827C125.341 350.737 175.751 348.905 226.175 347.372C227.155 347.372 228.134 347.246 229.113 347.135C251.333 344.703 252.707 343.708 257.539 321.689C259.236 313.091 262.804 304.972 267.99 297.907C273.175 290.842 279.851 285.005 287.545 280.81C292.424 278.014 297.13 274.887 301.852 271.807C305.689 269.096 310.154 267.409 314.824 266.906C319.494 266.403 324.216 267.1 328.541 268.932C331.496 269.998 334.625 270.496 337.764 270.401C352.262 270.211 366.822 268.821 381.256 269.611C406.792 271.096 430.528 265.299 453.475 254.874C458.402 252.647 463.187 250.135 468.193 248.05C480.527 243.075 490.097 235.92 494.677 222.414C496.682 216.444 501.957 211.358 506.442 206.524C517.065 195.473 524.498 181.751 527.951 166.814C528.64 163.437 529.743 160.159 531.236 157.053C532.196 155.169 532.75 153.105 532.865 150.994C532.979 148.883 532.65 146.772 531.899 144.795C530.32 139.899 531.173 134.276 530.952 129H535.358Z" fill="black"/>
</svg>
