<svg width="721" height="719" viewBox="0 0 721 719" fill="none" xmlns="http://www.w3.org/2000/svg">
<circle cx="409.5" cy="407.5" r="311.5" fill="#F9C400" fill-opacity="0.5"/>
<path d="M458.294 325.144C454.078 339.178 450.273 353.445 445.433 367.342C441.861 377.542 443.95 385.425 451.405 392.918C459.022 400.248 466.074 408.141 472.501 416.528C474.804 419.681 475.643 426.377 473.828 429.627C461.338 452.108 448.048 474.142 434.797 496.194C434.124 497.328 433.22 498.308 432.145 499.072C431.069 499.837 429.845 500.368 428.552 500.632C405.25 500.944 381.928 500.827 358.061 500.827C359.466 491.737 363.115 487.689 372.151 487.961C376.054 488.097 381.909 485.295 383.548 482.122C389.37 470.166 394.421 457.853 398.673 445.257C402.244 434.805 398.946 425.793 390.457 418.358C379.313 408.528 368.58 398.212 357.983 387.76C350.318 380.261 345.544 370.311 344.497 359.654C343.307 349.533 340.438 339.606 337.881 327.636C333.307 330.148 328.87 332.903 324.591 335.889C296.215 358.136 264.346 365.922 226.192 358.992C223.694 371.274 220.904 383.731 218.698 396.305C215.81 412.694 213.429 429.16 210.892 445.588C208.706 459.33 206.13 473.032 204.413 486.832C202.91 498.842 201.212 500.905 189.366 500.905C179.023 500.905 168.679 500.905 158.336 500.749C154.747 500.44 151.181 499.9 147.661 499.134C148.363 491.504 152.657 488.059 158.512 488.448C164.366 488.837 166.845 486.287 167.606 481.11C174.866 432.313 175.92 383.4 161.576 335.908C150.315 298.654 135.151 262.548 121.568 225.994C119.794 221.479 117.564 217.155 114.913 213.09C106.619 199.874 105.507 199.601 90.9871 205.304C83.4345 208.243 71.0224 200.691 67.412 191.679C63.8015 182.667 64.5627 176.381 74.1059 171.826C77.3065 170.288 80.9755 166.415 81.4829 163.165C83.7467 148.8 94.617 143.701 106.112 140.703C114.308 138.543 123.383 139.788 132.029 139.107C137.259 138.698 142.411 137.491 148.832 136.44C149.066 139.418 150.452 143.214 149.417 146.172C146.978 153.121 149.769 157.306 154.765 161.432C157.264 163.685 159.397 166.312 161.088 169.218C168.621 181.071 179.589 187.553 192.625 192.575C200.666 195.611 210.482 200.944 213.878 207.971C228.788 238.743 256.325 244.388 285.755 247.541C314.534 250.467 343.604 248.373 371.663 241.352C384.544 238.237 396.604 240.456 408.919 245.614C445.999 261.186 470.842 287.384 483.684 325.281C490.69 345.951 497.599 366.661 505.483 386.982C512.918 406.193 523.769 423.36 541.158 435.408C560.674 448.858 581.263 453.938 603.901 443.719C604.721 443.35 605.56 442.96 606.419 442.668C616.352 439.282 624.744 441.267 627.281 447.554C630.072 454.541 624.529 462.561 614.283 466.356C562.996 485.353 511.728 463.475 491.334 413.025C480.874 387.196 471.994 360.725 462.333 334.565C461.026 331.178 459.465 327.908 458.294 325.144ZM404.645 487.338C410.324 489.635 416.354 490.472 419.535 483.952C426.327 469.879 432.904 455.651 438.31 441.014C439.929 436.615 437.392 430.698 436.748 425.443L434.66 425.89C424.746 446.172 414.852 466.434 404.645 487.338ZM183.609 488.545L186.654 488.993C188.501 474.161 190.361 459.323 192.235 444.478L190.888 444.342C188.455 459.122 186.029 473.856 183.609 488.545Z" fill="black"/>
<path d="M93.4934 52.7971V52.5414C93.5218 49.8283 93.8059 47.6693 94.3457 46.0641C94.8855 44.459 95.6525 43.1593 96.6468 42.165C97.6411 41.1707 98.8343 40.2545 100.226 39.4164C101.064 38.905 101.817 38.3014 102.485 37.6053C103.153 36.8951 103.678 36.0783 104.062 35.1551C104.459 34.2318 104.658 33.209 104.658 32.0869C104.658 30.6948 104.331 29.4874 103.678 28.4647C103.025 27.442 102.151 26.6536 101.057 26.0997C99.9636 25.5457 98.7491 25.2687 97.4139 25.2687C96.2491 25.2687 95.1269 25.5102 94.0474 25.9931C92.9678 26.4761 92.0659 27.236 91.3414 28.2729C90.617 29.3099 90.198 30.6664 90.0843 32.3426H84.715C84.8286 29.9278 85.4536 27.861 86.59 26.1423C87.7406 24.4235 89.2534 23.1096 91.1284 22.2005C93.0176 21.2914 95.1127 20.8369 97.4139 20.8369C99.9139 20.8369 102.087 21.334 103.934 22.3283C105.795 23.3227 107.229 24.6863 108.238 26.4193C109.26 28.1522 109.772 30.1266 109.772 32.3426C109.772 33.9051 109.53 35.3184 109.047 36.5826C108.579 37.8468 107.897 38.9761 107.002 39.9704C106.121 40.9647 105.056 41.8454 103.806 42.6124C102.556 43.3937 101.554 44.2176 100.802 45.084C100.049 45.9363 99.5019 46.9519 99.161 48.1309C98.8201 49.3099 98.6355 50.7801 98.6071 52.5414V52.7971H93.4934ZM96.2207 65.4107C95.1696 65.4107 94.2676 65.0343 93.5147 64.2815C92.7619 63.5286 92.3855 62.6266 92.3855 61.5755C92.3855 60.5244 92.7619 59.6224 93.5147 58.8695C94.2676 58.1167 95.1696 57.7403 96.2207 57.7403C97.2718 57.7403 98.1738 58.1167 98.9267 58.8695C99.6795 59.6224 100.056 60.5244 100.056 61.5755C100.056 62.2715 99.8784 62.9107 99.5232 63.4931C99.1823 64.0755 98.7207 64.5443 98.1383 64.8994C97.5701 65.2403 96.9309 65.4107 96.2207 65.4107Z" fill="black"/>
<path d="M157.497 51.1437L157.627 50.9238C159.035 48.605 160.381 46.8931 161.664 45.788C162.947 44.6829 164.269 43.9563 165.631 43.6083C166.993 43.2603 168.487 43.0809 170.111 43.0701C171.093 43.0577 172.048 42.9225 172.977 42.6644C173.914 42.3941 174.782 41.9597 175.583 41.3613C176.396 40.7701 177.089 39.992 177.661 39.0269C178.371 37.8298 178.706 36.6248 178.665 35.412C178.625 34.1992 178.276 33.0757 177.618 32.0415C176.96 31.0072 176.056 30.1496 174.908 29.4687C173.906 28.8746 172.818 28.51 171.643 28.3748C170.469 28.2396 169.305 28.4331 168.154 28.9554C167.002 29.4777 165.949 30.4306 164.997 31.8141L160.379 29.0758C161.709 27.057 163.3 25.5984 165.154 24.6998C167.02 23.8084 168.991 23.45 171.067 23.6244C173.156 23.8061 175.189 24.4837 177.168 25.6573C179.318 26.9323 180.934 28.4682 182.015 30.2651C183.108 32.0692 183.646 33.9736 183.63 35.9783C183.625 37.9903 183.058 39.9491 181.928 41.8548C181.131 43.1985 180.203 44.2908 179.143 45.1317C178.095 45.9799 176.933 46.6033 175.656 47.0021C174.391 47.408 173.026 47.6221 171.56 47.6442C170.086 47.6786 168.805 47.8764 167.716 48.2376C166.634 48.5866 165.645 49.1812 164.751 50.0212C163.856 50.8613 162.948 52.0315 162.025 53.5317L161.895 53.7516L157.497 51.1437ZM153.409 63.3823C152.505 62.8462 151.922 62.0625 151.658 61.0311C151.395 59.9997 151.531 59.032 152.067 58.128C152.603 57.2241 153.387 56.6403 154.418 56.3768C155.45 56.1133 156.417 56.2496 157.321 56.7857C158.225 57.3218 158.809 58.1055 159.073 59.1369C159.336 60.1683 159.2 61.136 158.664 62.04C158.309 62.6386 157.83 63.0977 157.228 63.4175C156.637 63.7445 156.001 63.9121 155.319 63.9205C154.657 63.9239 154.02 63.7445 153.409 63.3823Z" fill="black"/>
<path d="M33.3656 63.4065L33.2324 63.1883C31.8423 60.8583 30.9591 58.8677 30.583 57.2166C30.2069 55.5654 30.1839 54.0564 30.5141 52.6895C30.8442 51.3227 31.3848 49.9188 32.1359 48.4779C32.5845 47.6047 32.9122 46.697 33.1191 45.755C33.3186 44.8009 33.3413 43.8299 33.1873 42.8421C33.0454 41.8468 32.6819 40.8704 32.0969 39.9128C31.3712 38.7249 30.463 37.8648 29.3723 37.3327C28.2815 36.8006 27.125 36.5832 25.9029 36.6806C24.6807 36.7781 23.4999 37.1748 22.3605 37.8709C21.3665 38.4781 20.5348 39.2692 19.8653 40.2441C19.1958 41.219 18.8222 42.3377 18.7446 43.6002C18.6669 44.8628 19.0165 46.2388 19.7933 47.7285L15.2113 50.5275C14.0494 48.4076 13.5054 46.3181 13.5791 44.2589C13.665 42.1924 14.271 40.2825 15.3971 38.5293C16.5354 36.7686 18.0864 35.2885 20.0501 34.0889C22.1835 32.7856 24.2973 32.0769 26.3915 31.9628C28.4978 31.8413 30.433 32.2571 32.197 33.2102C33.9732 34.1559 35.4388 35.5742 36.594 37.4652C37.4086 38.7986 37.9393 40.1306 38.1862 41.4612C38.4452 42.7844 38.4521 44.1035 38.2067 45.4185C37.9735 46.7262 37.5235 48.0331 36.8567 49.3393C36.1972 50.6576 35.7721 51.8827 35.5814 53.0146C35.3832 54.1344 35.446 55.2862 35.7697 56.47C36.0934 57.6538 36.7022 59.0047 37.5962 60.5226L37.7295 60.7408L33.3656 63.4065ZM42.2686 72.7489C41.3716 73.2968 40.4056 73.4458 39.3707 73.1958C38.3358 72.9459 37.5444 72.3724 36.9964 71.4753C36.4484 70.5783 36.2994 69.6124 36.5494 68.5775C36.7994 67.5426 37.3729 66.7511 38.2699 66.2032C39.1669 65.6552 40.1329 65.5062 41.1678 65.7562C42.2027 66.0062 42.9942 66.5797 43.5421 67.4767C43.905 68.0706 44.0867 68.7087 44.0872 69.3908C44.0999 70.0655 43.9503 70.7062 43.6384 71.3128C43.3313 71.8999 42.8747 72.3786 42.2686 72.7489Z" fill="black"/>
</svg>
