<svg width="637" height="623" viewBox="0 0 637 623" fill="none" xmlns="http://www.w3.org/2000/svg">
<circle cx="311.5" cy="311.5" r="311.5" fill="#F9C400" fill-opacity="0.5"/>
<path d="M613.314 368.248C626.516 341.877 629.764 313.075 635.292 284.427C635.505 287.726 635.679 291.044 635.969 294.343C644.223 388.697 602.547 457.008 524.879 506.549C478.758 535.968 429.467 557.208 374.956 565.812C352.65 569.342 332.295 578.294 316 595C331.019 561.954 347.933 530.489 381.722 512.317C382.47 511.809 383.252 511.352 384.061 510.947C405.652 503.231 413.23 486.119 417.405 465.265C425.466 424.927 426.799 384.781 417.965 344.462C415.723 334.276 407.566 329.531 397.843 333.427C391.483 335.993 385.858 340.507 379.441 342.861C374.338 344.79 368.229 346.121 363.088 345.118C353.423 343.189 351.799 338.887 353.423 324.341C351.149 323.067 348.799 321.934 346.387 320.946C333.068 316.258 327.173 306.554 326.206 292.896C325.894 288.129 324.688 283.464 322.65 279.141C318.784 271.27 321.219 265.811 328.043 261.625C334.189 257.766 340.568 254.468 346.812 250.822C361.696 242.121 372.463 230.103 376.851 213.087C378.175 207.508 380.704 202.283 384.259 197.779C387.815 193.274 392.312 189.597 397.437 187.005C433.255 168.061 471.065 159.419 511.6 165.341C514.557 165.785 517.882 165.997 520.298 167.502C534.95 176.607 548.655 170.839 562.302 165.187C573.224 160.653 577.341 162.872 577.921 174.64C578.597 188.51 574.905 201.32 568.468 213.589C566.961 216.463 566.303 221.306 567.657 223.949C590.389 269.496 603.707 318.014 613.314 368.248Z" fill="black"/>
<path d="M225.75 193H212.284V149.364H226.347C230.58 149.364 234.202 150.237 237.213 151.984C240.224 153.717 242.533 156.21 244.138 159.463C245.743 162.702 246.545 166.58 246.545 171.097C246.545 175.642 245.736 179.555 244.116 182.837C242.497 186.104 240.139 188.618 237.043 190.379C233.946 192.126 230.182 193 225.75 193ZM217.568 188.312H225.409C229.017 188.312 232.007 187.616 234.379 186.224C236.751 184.832 238.52 182.851 239.685 180.28C240.849 177.709 241.432 174.648 241.432 171.097C241.432 167.574 240.857 164.541 239.706 161.999C238.555 159.442 236.837 157.482 234.55 156.118C232.263 154.74 229.415 154.051 226.006 154.051H217.568V188.312ZM292.227 171.182C292.227 175.784 291.396 179.761 289.734 183.114C288.072 186.466 285.793 189.051 282.895 190.869C279.997 192.688 276.688 193.597 272.966 193.597C269.244 193.597 265.935 192.688 263.037 190.869C260.139 189.051 257.859 186.466 256.197 183.114C254.536 179.761 253.705 175.784 253.705 171.182C253.705 166.58 254.536 162.602 256.197 159.25C257.859 155.898 260.139 153.312 263.037 151.494C265.935 149.676 269.244 148.767 272.966 148.767C276.688 148.767 279.997 149.676 282.895 151.494C285.793 153.312 288.072 155.898 289.734 159.25C291.396 162.602 292.227 166.58 292.227 171.182ZM287.114 171.182C287.114 167.403 286.482 164.214 285.217 161.615C283.967 159.016 282.27 157.048 280.125 155.713C277.994 154.378 275.608 153.71 272.966 153.71C270.324 153.71 267.93 154.378 265.786 155.713C263.655 157.048 261.957 159.016 260.693 161.615C259.443 164.214 258.818 167.403 258.818 171.182C258.818 174.96 259.443 178.149 260.693 180.749C261.957 183.348 263.655 185.315 265.786 186.651C267.93 187.986 270.324 188.653 272.966 188.653C275.608 188.653 277.994 187.986 280.125 186.651C282.27 185.315 283.967 183.348 285.217 180.749C286.482 178.149 287.114 174.96 287.114 171.182ZM323.271 149.364V193H317.987V149.364H323.271ZM331.48 154.051V149.364H364.207V154.051H350.485V193H345.201V154.051H331.48Z" fill="black"/>
</svg>
