<svg width="856" height="789" viewBox="0 0 856 789" fill="none" xmlns="http://www.w3.org/2000/svg">
<circle cx="544.5" cy="477.5" r="311.5" fill="#F9C400" fill-opacity="0.5"/>
<path d="M231.527 277.143C231.671 275.945 231.873 274.761 231.945 273.563C232.536 263.69 230.691 255.867 221.75 248.837C190.053 224.09 163.015 193.889 141.903 159.648C125.405 132.858 108.144 106.242 84.7537 84.7926C70.1168 71.3977 53.4321 60.3267 37.5694 48.2597C28.0085 41.0426 18.0439 34.2441 8.72815 26.6084C0.407441 19.7666 -1.78453 12.4484 1.38801 6.617C4.41634 1.07427 12.665 -1.65381 22.1393 1.05982C27.6742 2.57849 32.8478 5.19471 37.3531 8.75323C75.063 40.1187 109.37 74.4 139.105 113.459C159.597 140.408 180.276 167.414 203.234 192.197C217.049 207.094 235.348 217.847 251.817 230.217C253.259 231.343 256.143 230.997 258.407 230.766C260.536 230.402 262.614 229.782 264.594 228.918C277.572 224.039 290.233 224.01 302.707 231.054C306.586 233.248 312.167 237.521 315.686 232.498C320.243 225.959 328.982 220.82 325.045 210.053C322.107 202.469 320.248 194.51 319.522 186.409C318.729 174.429 325.809 170.445 335.831 177.042C351.838 187.55 368.999 184.677 386.059 182.18C388.38 181.848 390.515 178.803 392.317 176.666C394.12 174.53 394.624 171.499 396.643 170.113C400.335 167.544 404.69 165.898 408.771 163.878C410.213 167.645 412.766 171.427 412.751 175.18C412.751 183.234 412.838 190.913 417.077 198.13C418.213 200.524 418.738 203.162 418.606 205.809C418.736 221.614 418.865 237.42 418.606 253.225C418.387 256.499 417.152 259.623 415.073 262.16C409.305 269.175 409.305 274.891 414.64 282.527C425.038 297.48 434.642 312.997 445.154 327.865C451.1 335.965 457.508 343.715 464.348 351.075C476.836 365.004 490.478 378.009 502.058 392.645C514.694 408.537 522.864 427.517 525.722 447.625C527.828 462.305 517.733 475.05 503.01 477.273C497.919 478.038 495.136 476.219 495.223 470.763C495.309 464.989 495.944 459.216 495.093 453.572C494.236 448.636 492.513 443.891 490.002 439.556C486.397 433.162 483.239 432.801 477.759 436.886C472.28 440.971 475.019 444.868 478.408 448.275C484.58 454.467 490.363 460.616 491.272 470.07C491.791 475.382 490.435 476.97 484.97 477.648C469.684 479.582 460.383 473.534 453.619 459.692C448.673 449.501 441.102 440.437 433.762 431.632C426.162 422.495 415.751 419.074 403.926 421.355C388.063 424.415 373.642 421.167 359.438 413.907C338.975 403.456 316.551 396.413 299.737 379.799C282.143 362.478 264.579 344.969 247.822 326.753C235.132 312.925 227.922 296.658 231.527 277.143Z" fill="black"/>
</svg>
