<svg width="96" height="45" viewBox="0 0 96 45" fill="none" xmlns="http://www.w3.org/2000/svg">
<path d="M0.0639507 8.68409L1.34328 6.95242C1.78464 6.37305 2.19402 5.81944 1.93816 4.9697C1.91553 4.78687 1.93492 4.60123 1.99481 4.42713C2.05469 4.25302 2.1535 4.09509 2.2836 3.96546C3.18553 3.10928 4.1386 2.31747 5.0981 1.52567C5.68659 1.04286 6.31984 0.624417 6.92752 0.16736C7.00428 0.11586 7.07467 0 7.15143 0C8.48833 0 9.82523 -5.49651e-06 11.1557 0.135181C11.386 0.135181 11.693 0.611545 11.757 0.914104C11.9297 1.77672 12.5694 2.02135 13.2026 2.4269C14.4819 3.25089 15.6141 4.28733 16.8423 5.18857C17.1456 5.38836 17.5036 5.48742 17.8658 5.47181C19.2539 5.42675 20.6419 5.20143 22.0236 5.25937C25.0044 5.43216 27.9867 4.94659 30.7614 3.8367C34.5994 2.24022 38.5397 2.21447 42.5312 2.48484C45.173 2.66509 47.8148 3.00627 50.4374 3.36676C51.1604 3.53237 51.8489 3.82433 52.4715 4.22938C55.1645 5.70355 57.9343 7.06828 60.5057 8.73558C63.1133 10.4452 65.6069 12.3246 67.9706 14.3619C71.0214 16.9341 74.5109 18.9276 78.2692 20.2457C81.874 21.5638 85.5467 22.6855 89.2714 23.606C91.229 24.1844 93.1371 24.9207 94.9772 25.8077C95.1808 25.8761 95.3673 25.9877 95.5243 26.1351C95.6812 26.2824 95.8048 26.462 95.8867 26.6616C95.9686 26.8613 96.0069 27.0764 95.999 27.2922C95.991 27.5081 95.9371 27.7197 95.8407 27.9127C95.5698 28.3212 95.1544 28.6104 94.6791 28.7217C94.2038 28.8329 93.7042 28.7577 93.2821 28.5114C91.6829 27.3011 89.7895 27.1273 87.9281 26.8698C80.6111 25.927 73.6262 23.2291 67.5612 19.0033C65.5271 17.5742 63.5953 15.9906 61.5996 14.4971C60.8128 13.9048 59.9812 13.377 59.3607 12.9585C58.1646 14.3297 57.1219 15.6558 55.9449 16.821C53.5334 19.235 51.0579 21.5847 48.5824 23.9022C48.375 24.0649 48.2247 24.2901 48.1534 24.5448C48.0821 24.7996 48.0934 25.0706 48.1858 25.3184C48.5632 26.6059 48.8958 27.8934 49.2349 29.1809C49.5163 30.2559 49.2988 30.7966 48.2946 31.2215C46.7018 31.9039 45.0962 32.509 43.4715 33.1527C42.5504 33.5261 42.5504 33.5326 42.3457 34.6849C42.5637 34.7809 42.7909 34.8542 43.0237 34.9037C45.1346 35.2321 46.1517 36.835 46.9065 38.5924C46.9677 38.8151 46.9723 39.0498 46.9197 39.2748C46.8672 39.4998 46.7593 39.7079 46.6058 39.8799C46.3809 39.9775 46.1352 40.0163 45.8913 39.9927C45.6475 39.9691 45.4136 39.8838 45.2114 39.7447C43.996 38.2577 42.3009 38.5473 40.7337 38.3285C40.5418 38.3285 40.2924 38.4958 40.0941 38.6439C37.6634 40.4914 35.1943 42.3003 32.8211 44.2316C31.4906 45.3131 30.1281 45.0234 28.6953 44.7337C28.331 44.7152 27.9659 44.7411 27.6078 44.811C27.3463 44.8665 27.0762 44.8665 26.8147 44.811C26.3833 44.6149 26.0145 44.3024 25.7491 43.908C25.4837 43.5137 25.3322 43.053 25.3115 42.5771C25.2091 41.9334 26.2006 41.1609 26.949 41.4957C29.5077 42.6673 31.2028 41.2189 32.8915 39.661C33.8318 38.792 34.7209 37.8843 35.7764 36.8543C35.1367 36.7706 34.7145 36.674 34.2731 36.6547C31.8188 36.5573 29.4161 35.9154 27.2368 34.775C26.7462 34.5038 26.2778 34.1938 25.836 33.848C25.2127 33.409 24.7397 32.7865 24.482 32.0661C24.2243 31.3457 24.1945 30.5627 24.3967 29.8246C24.6014 28.8332 24.8317 27.8419 25.0364 26.8441C25.2411 25.8463 24.8509 25.518 23.8338 25.6918C22.3491 25.9782 20.8161 25.8732 19.3836 25.387C17.9512 24.9009 16.668 24.05 15.6589 22.9173C13.4905 20.6384 12.2239 17.7673 10.6951 15.0314C10.3825 14.313 9.90455 13.6797 9.30069 13.1838C8.48832 12.6882 7.52242 12.4822 6.74204 11.7998C6.53734 11.6196 5.84651 11.8513 5.46271 12.0702C3.65886 13.1259 3.35181 13.0229 2.09167 11.2977C1.45134 10.545 0.751873 9.84531 0 9.20552L0.0639507 8.68409ZM31.8488 22.5374L36.5312 31.7365C36.7378 31.7409 36.9429 31.7015 37.1334 31.6208C37.3238 31.5401 37.4953 31.4199 37.6365 31.268C37.7777 31.1162 37.8855 30.9361 37.953 30.7396C38.0204 30.543 38.046 30.3344 38.0279 30.1272C38.1239 28.0028 38.3094 25.8849 38.4885 23.767C38.5686 23.2097 38.6796 22.6574 38.8212 22.1126L39.4096 19.0612C36.6086 19.4605 33.9825 20.6679 31.8488 22.5374ZM29.0663 27.314C28.7228 28.1323 28.4655 28.9845 28.2987 29.8568C28.2915 30.1575 28.3445 30.4567 28.4544 30.7364C28.5642 31.0162 28.7288 31.2709 28.9384 31.4855C30.0578 32.4768 31.497 32.7021 33.1601 32.9467L29.0663 27.314Z" fill="black"/>
</svg>
