<svg width="1483" height="803" viewBox="0 0 1483 803" fill="none" xmlns="http://www.w3.org/2000/svg">
<ellipse cx="1435.5" cy="130" rx="32.5" ry="31" fill="#401818"/>
<ellipse cx="46.5" cy="698" rx="32.5" ry="31" fill="#401818"/>
<ellipse cx="46.5" cy="31" rx="32.5" ry="31" fill="#401818"/>
<ellipse cx="1435.5" cy="603" rx="32.5" ry="31" fill="#401818"/>
<ellipse cx="46.5" cy="326" rx="32.5" ry="31" fill="#401818"/>
<ellipse cx="1435.5" cy="306" rx="32.5" ry="31" fill="#401818"/>
<path d="M1478 45C1478 66.8887 1459.4 85 1436 85C1412.6 85 1394 66.8887 1394 45C1394 23.1113 1412.6 5 1436 5C1459.4 5 1478 23.1113 1478 45Z" stroke="#401818" stroke-width="10"/>
<path d="M89 613C89 634.889 70.4031 653 47 653C23.5969 653 5 634.889 5 613C5 591.111 23.5969 573 47 573C70.4031 573 89 591.111 89 613Z" stroke="#401818" stroke-width="10"/>
<path d="M89 186C89 207.889 70.4031 226 47 226C23.5969 226 5 207.889 5 186C5 164.111 23.5969 146 47 146C70.4031 146 89 164.111 89 186Z" stroke="#401818" stroke-width="10"/>
<path d="M1478 758C1478 779.889 1459.4 798 1436 798C1412.6 798 1394 779.889 1394 758C1394 736.111 1412.6 718 1436 718C1459.4 718 1478 736.111 1478 758Z" stroke="#401818" stroke-width="10"/>
<path d="M89 426C89 447.889 70.4031 466 47 466C23.5969 466 5 447.889 5 426C5 404.111 23.5969 386 47 386C70.4031 386 89 404.111 89 426Z" stroke="#401818" stroke-width="10"/>
<path d="M1478 406C1478 427.889 1459.4 446 1436 446C1412.6 446 1394 427.889 1394 406C1394 384.111 1412.6 366 1436 366C1459.4 366 1478 384.111 1478 406Z" stroke="#401818" stroke-width="10"/>
<circle cx="1436" cy="190" r="20" fill="#401818"/>
<circle cx="47" cy="758" r="20" fill="#401818"/>
<circle cx="47" cy="106" r="20" fill="#401818"/>
<circle cx="1436" cy="678" r="20" fill="#401818"/>
<circle cx="47" cy="506" r="20" fill="#401818"/>
<circle cx="1436" cy="486" r="20" fill="#401818"/>
</svg>
