<svg width="1520" height="821" viewBox="0 0 1520 821" fill="none" xmlns="http://www.w3.org/2000/svg">
<rect x="1453" y="5" width="56.8444" height="54" rx="25" stroke="#401818" stroke-width="10"/>
<rect x="1470.28" y="20.7407" width="22.2815" height="23.1111" rx="10" fill="#401818"/>
<path d="M1507.53 157.393L1486.6 142.367C1485.94 141.89 1485.23 141.475 1484.49 141.127L1483.74 140.774C1480.52 139.262 1476.78 139.313 1473.59 140.912C1472.62 141.401 1471.72 142.025 1470.92 142.766L1455.44 157.101C1454.81 157.679 1453.99 158 1453.14 158C1450.83 158 1449.2 155.724 1449.95 153.534L1467.66 101.625C1469.22 97.065 1473.51 94 1478.32 94C1482.76 94 1486.78 96.5984 1488.59 100.639L1512.37 153.439C1513.33 155.579 1511.77 158 1509.42 158C1508.74 158 1508.08 157.788 1507.53 157.393Z" fill="#401818" stroke="#401818" stroke-width="10"/>
<path d="M1509.42 220C1509.42 234.768 1497.03 247 1481.42 247C1465.81 247 1453.42 234.768 1453.42 220C1453.42 205.232 1465.81 193 1481.42 193C1497.03 193 1509.42 205.232 1509.42 220Z" stroke="#401818" stroke-width="10"/>
<rect x="9" y="280" width="56.8444" height="54" rx="25" stroke="#401818" stroke-width="10"/>
<rect x="26.2815" y="295.741" width="22.2815" height="23.1111" rx="10" fill="#401818"/>
<path d="M63.5349 432.393L42.6044 417.367C41.9399 416.89 41.2328 416.475 40.4921 416.127L39.7392 415.774C36.5155 414.262 32.7763 414.313 29.5948 415.912C28.6209 416.401 27.7207 417.025 26.9208 417.766L11.4353 432.101C10.8113 432.679 9.99223 433 9.14188 433C6.82738 433 5.19926 430.724 5.94691 428.534L23.6648 376.625C25.2213 372.065 29.506 369 34.3244 369C38.7558 369 42.7754 371.598 44.5948 375.639L68.3688 428.439C69.3322 430.579 67.7671 433 65.4206 433C64.744 433 64.0845 432.788 63.5349 432.393Z" fill="#401818" stroke="#401818" stroke-width="10"/>
<path d="M65.4224 495C65.4224 509.768 53.0325 522 37.4224 522C21.8122 522 9.42236 509.768 9.42236 495C9.42236 480.232 21.8122 468 37.4224 468C53.0325 468 65.4224 480.232 65.4224 495Z" stroke="#401818" stroke-width="10"/>
<rect x="1453.42" y="574" width="56.8444" height="54" rx="25" stroke="#401818" stroke-width="10"/>
<rect x="1470.7" y="589.741" width="22.2815" height="23.1111" rx="10" fill="#401818"/>
<path d="M1507.96 726.393L1487.03 711.367C1486.36 710.89 1485.66 710.475 1484.91 710.127L1484.16 709.774C1480.94 708.262 1477.2 708.313 1474.02 709.912C1473.04 710.401 1472.14 711.025 1471.34 711.766L1455.86 726.101C1455.23 726.679 1454.41 727 1453.56 727C1451.25 727 1449.62 724.724 1450.37 722.534L1468.09 670.625C1469.64 666.065 1473.93 663 1478.75 663C1483.18 663 1487.2 665.598 1489.02 669.639L1512.79 722.439C1513.75 724.579 1512.19 727 1509.84 727C1509.17 727 1508.51 726.788 1507.96 726.393Z" fill="#401818" stroke="#401818" stroke-width="10"/>
<path d="M1509.84 789C1509.84 803.768 1497.45 816 1481.84 816C1466.23 816 1453.84 803.768 1453.84 789C1453.84 774.232 1466.23 762 1481.84 762C1497.45 762 1509.84 774.232 1509.84 789Z" stroke="#401818" stroke-width="10"/>
<rect x="9" y="5" width="56.8444" height="54" rx="25" stroke="#401818" stroke-width="10"/>
<rect x="26.2815" y="20.7407" width="22.2815" height="23.1111" rx="10" fill="#401818"/>
<path d="M11.3098 94.6068L32.2403 109.633C32.9049 110.11 33.612 110.525 34.3526 110.873L35.1055 111.226C38.3292 112.738 42.0684 112.687 45.2499 111.088C46.2239 110.599 47.1241 109.975 47.924 109.234L63.4094 94.8986C64.0335 94.3209 64.8525 94 65.7029 94C68.0173 94 69.6455 96.2761 68.8978 98.4665L51.1799 150.375C49.6235 154.935 45.3387 158 40.5203 158C36.0889 158 32.0693 155.402 30.2499 151.361L6.47593 98.5608C5.5125 96.4211 7.07758 94 9.42417 94C10.1007 94 10.7602 94.2122 11.3098 94.6068Z" fill="#401818" stroke="#401818" stroke-width="10"/>
<path d="M65.4224 220C65.4224 234.768 53.0325 247 37.4224 247C21.8122 247 9.42236 234.768 9.42236 220C9.42236 205.232 21.8122 193 37.4224 193C53.0325 193 65.4224 205.232 65.4224 220Z" stroke="#401818" stroke-width="10"/>
<rect x="1454" y="281" width="56.8444" height="54" rx="25" stroke="#401818" stroke-width="10"/>
<rect x="1471.28" y="296.741" width="22.2815" height="23.1111" rx="10" fill="#401818"/>
<path d="M1456.31 370.607L1477.24 385.633C1477.9 386.11 1478.61 386.525 1479.35 386.873L1480.11 387.226C1483.33 388.738 1487.07 388.687 1490.25 387.088C1491.22 386.599 1492.12 385.975 1492.92 385.234L1508.41 370.899C1509.03 370.321 1509.85 370 1510.7 370C1513.02 370 1514.65 372.276 1513.9 374.466L1496.18 426.375C1494.62 430.935 1490.34 434 1485.52 434C1481.09 434 1477.07 431.402 1475.25 427.361L1451.48 374.561C1450.51 372.421 1452.08 370 1454.42 370C1455.1 370 1455.76 370.212 1456.31 370.607Z" fill="#401818" stroke="#401818" stroke-width="10"/>
<path d="M1510.42 496C1510.42 510.768 1498.03 523 1482.42 523C1466.81 523 1454.42 510.768 1454.42 496C1454.42 481.232 1466.81 469 1482.42 469C1498.03 469 1510.42 481.232 1510.42 496Z" stroke="#401818" stroke-width="10"/>
<rect x="9" y="574" width="56.8444" height="54" rx="25" stroke="#401818" stroke-width="10"/>
<rect x="26.2815" y="589.741" width="22.2815" height="23.1111" rx="10" fill="#401818"/>
<path d="M11.3098 663.607L32.2403 678.633C32.9049 679.11 33.612 679.525 34.3526 679.873L35.1055 680.226C38.3292 681.738 42.0684 681.687 45.2499 680.088C46.2239 679.599 47.1241 678.975 47.924 678.234L63.4094 663.899C64.0335 663.321 64.8525 663 65.7029 663C68.0173 663 69.6455 665.276 68.8978 667.466L51.1799 719.375C49.6235 723.935 45.3387 727 40.5203 727C36.0889 727 32.0693 724.402 30.2499 720.361L6.47593 667.561C5.5125 665.421 7.07758 663 9.42417 663C10.1007 663 10.7602 663.212 11.3098 663.607Z" fill="#401818" stroke="#401818" stroke-width="10"/>
<path d="M65.4224 789C65.4224 803.768 53.0325 816 37.4224 816C21.8122 816 9.42236 803.768 9.42236 789C9.42236 774.232 21.8122 762 37.4224 762C53.0325 762 65.4224 774.232 65.4224 789Z" stroke="#401818" stroke-width="10"/>
</svg>
